<svg xmlns="http://www.w3.org/2000/svg" viewBox="0 0 1739.47 746.86"><defs><style>.cls-1{fill:#1d1d1b;}</style></defs><title>Ресурс 2</title><g id="Слой_2" data-name="Слой 2"><g id="Слой_1-2" data-name="Слой 1"><path class="cls-1" d="M1656.87,439.6c0-25.2,17.5-43.4,41.3-43.4,25.2,0,41.3,18.2,41.3,43.4,0,24.5-16.1,43.4-41.3,43.4C1673.67,483,1656.87,464.1,1656.87,439.6Zm17.5-100.1-9.8-336h67.2l-9.8,336Z"/><path class="cls-1" d="M327.91,279.3H124.6l46.2-136.5c9.1-28.7,16.8-57.4,23.8-85.4H196c7,27.3,14,55.3,24.5,86.1l33.34,98H315L233.8,3.5H160.3L0,475.3H63l49-148.4H279.3l50.4,148.4h65.1Z"/><path class="cls-1" d="M853.29,209.3c-32.9-21.7-77-31.5-121.8-31.5-15.4,0-43.4,1.4-58.1,3.5V54.6h203.7V3.5H612.49V390.56h60.9V228.2c15.4-1.4,34.3-2.8,48.3-2.8,33.6,0,65.1,7,89.6,23.8,23.1,16.1,38.5,40.6,38.5,77,0,29.4-9.8,52.5-25.9,69.3-23.1,24.5-61.6,36.4-99.4,36.4-21,0-37.1-.7-51.1-3.5v0h-60.9V473.9c20.3,2.8,52.5,5.6,95.2,5.6,64.4,0,128.1-14.7,166.6-52.5,24.5-24.5,39.2-58.1,39.2-102.2C913.49,269.5,889,232.4,853.29,209.3Z"/><path class="cls-1" d="M1343.28,222.6v-1.4c49.7-18.2,79.8-58.1,79.8-103.6,0-37.1-14.7-65.1-39.2-83.3-29.4-23.8-68.6-34.3-129.5-34.3-42.7,0-84.7,4.2-111.3,9.8V165.2H1204V51.1c9.8-2.1,25.9-4.2,53.9-4.2,61.6,0,103.6,21.7,103.6,77,0,45.5-37.8,79.1-102.2,79.1h-116.2V473.9c20.3,2.8,52.5,5.6,94.5,5.6,77,0,130.2-14,163.1-44.1,23.8-23.1,39.9-53.9,39.9-94.5C1440.58,270.9,1388.08,233.8,1343.28,222.6Zm-88.2,209.3c-21.7,0-39.2-.7-51.1-2.8V249.2h50.4c66.5,0,121.8,26.6,121.8,91C1376.18,408.8,1318.08,431.9,1255.08,431.9Z"/><path class="cls-1" d="M249.2,699.07c-4.6,2.4-14.8,5.6-27.8,5.6-29.2,0-48.19-19.8-48.19-49.4,0-29.8,20.39-51.4,52-51.4,10.4,0,19.6,2.6,24.4,5l-4,13.6c-4.2-2.4-10.8-4.6-20.4-4.6-22.2,0-34.2,16.4-34.2,36.6,0,22.4,14.4,36.2,33.6,36.2a50,50,0,0,0,21.6-4.8Z"/><path class="cls-1" d="M504.8,605.87v14H474.6v82.8H457.2v-82.8H427v-14Z"/><path class="cls-1" d="M697.59,605.87l21.2,57.2c2.2,6.4,4.6,14,6.2,19.8h.4c1.8-5.8,3.8-13.2,6.2-20.2l19.2-56.8h18.6l-26.4,69c-12.6,33.2-21.2,50.19-33.2,60.6-8.6,7.59-17.2,10.59-21.6,11.39l-4.4-14.8a46.51,46.51,0,0,0,15.4-8.59,53.36,53.36,0,0,0,14.8-19.6,12.63,12.63,0,0,0,1.4-4.2,15.35,15.35,0,0,0-1.2-4.6l-35.8-89.2Z"/><path class="cls-1" d="M1030,605.87v83.6l10,.2-1,43.8h-13.8l-.8-30.8h-67l-.8,30.8h-13.8l-.8-43.8,8.2-.2a75.52,75.52,0,0,0,9.6-19.8,127.78,127.78,0,0,0,5.6-38.6v-25.2Zm-49,29.4a128.35,128.35,0,0,1-5,36,92.17,92.17,0,0,1-7.8,18h44.6v-70H981Z"/><path class="cls-1" d="M1246.77,605.87v40.8c0,15.4-.2,25-1,38.8l.6.2c5.8-11.8,9.2-18.6,15.6-29.8l30.2-50h20.6v96.8H1296v-41c0-15.8.4-24,1.2-39.6h-.6c-6.2,12.4-10.4,20.2-16,30-9.2,15-19.8,33.6-30.2,50.6h-20.2v-96.8Z"/><path class="cls-1" d="M1581.56,702.67h-17.4v-40.6h-13c-7.4,0-12.4,2-16.2,5.4-7.2,5.8-9.8,17.8-13.6,27.2a59.63,59.63,0,0,1-4,8h-18.8a63.1,63.1,0,0,0,6-11c4.2-9.4,6.6-22,15.2-29.2a23.09,23.09,0,0,1,11-5.6v-.6c-12.6-1.4-25.6-9.2-25.6-24,0-10,5.4-16.8,12.8-21,8-4.6,19.8-6.6,32.4-6.6a269.61,269.61,0,0,1,31.2,2Zm-17.4-85.2a98.27,98.27,0,0,0-14.6-1c-12,0-26.2,3.4-26.2,16.8,0,12.4,15.4,16.8,25.8,16.8h15Z"/></g></g></svg>