<svg xmlns="http://www.w3.org/2000/svg" viewBox="0 0 353.15 427.19"><defs><style>.cls-1{fill:#ff6b57;}.cls-2{fill:#e6614e;}.cls-3{fill:#f41e01;}.cls-4{fill:#ffd138;}.cls-5{fill:#f8bdc5;}.cls-6{fill:#dddef6;}.cls-7{fill:#3c3641;}</style></defs><title>Ресурс 6</title><g id="Слой_2" data-name="Слой 2"><g id="Слой_2-2" data-name="Слой 2"><path class="cls-1" d="M21.7,368.65a18.64,18.64,0,0,1-8.82-4.93,21.82,21.82,0,0,1-5.49-6.83c-1.67-3.39-1.87-6.32-2.08-9.93-.28-4.77.24-8.55.94-13.68.61-4.44,1.16-6.67,1-10.68s-1-5.72-1.89-7A10.28,10.28,0,0,0,0,312a34.67,34.67,0,0,1,7.39,0,37.11,37.11,0,0,1,5.87,1.14A22.38,22.38,0,0,1,18.57,315a15.83,15.83,0,0,1,5.87,5.69c1.64,2.82.75,3.62,2.28,9.47,1,3.86,1.68,6.33,3.63,8.91a19.63,19.63,0,0,0,5.46,4.73,29.88,29.88,0,0,0,9,3.95l-3.7,2.31c-4.85,3-6.48,3.79-8.72,4.17l-2,.19c-6.61.63-7.56.74-8.18,1.51-.86,1.07-.47,2.64,0,4.55a18.25,18.25,0,0,0,4.74,8.33A16,16,0,0,1,21.7,368.65Z"/><path class="cls-2" d="M57.22,341.17l-4.17-9.47c-1.22-2.84-2.81-6.85-4.36-11.75a88.41,88.41,0,0,1-3.87-16.1c-.93-7.1-1.54-11.74,0-17.44.61-2.24,1.29-3.69,2.86-9.28.47-1.67,1.19-4.3,2-7.58s1.17-5,1.38-6.44a44.78,44.78,0,0,0,0-10.61,43.23,43.23,0,0,0-1.57-10,38.67,38.67,0,0,0-1.77-4.74,85.24,85.24,0,0,0-8.65-15A35.43,35.43,0,0,1,40,235.63a48.85,48.85,0,0,1-3.78,13.08c-.22.54-1.13,2.79-2.65,5.87-3.63,7.32-5.65,9-10,17a61.83,61.83,0,0,0-3.78,7.77,61.21,61.21,0,0,0-2.85,10.23c-1.87,10.26-.59,20.6,0,24.6a16.25,16.25,0,0,1,1.71.79,16.79,16.79,0,0,1,5.87,5.69c1.68,2.81.71,3.5,2.28,9.47,1,3.86,1.68,6.33,3.63,8.91,1.14,1.49,2.58,2.57,5.46,4.73.89.67,7,5.21,9,3.95.12-.07.49-.34,1.22-.81,0,0,.79-.52,1.64-1C48.72,345.31,52.27,343.45,57.22,341.17Z"/><path class="cls-3" d="M169.33,198.31a67.62,67.62,0,0,1-17.69-4.55,70.83,70.83,0,0,1-22.73-15.16c-5.79-5.49-9.84-11.48-17.69-23.24-2.19-3.27-6.72-10.17-14.65-23.75-4.47-7.65-10.42-18.1-17.18-30.82A74.77,74.77,0,0,0,61.2,80.58,80,80,0,0,0,44.53,71c-4.9-2.1-10.47-4.44-18.19-5a47.2,47.2,0,0,0-7.58,0L89.49.75A49.49,49.49,0,0,1,121.33,5.8,106.37,106.37,0,0,1,134,13.38a80.06,80.06,0,0,1,10.1,8.09c1,1,3.15,3.05,9.6,11.11,5.37,6.7,8.05,10,10.11,13.14,6,9,4.86,10.31,9.6,16.17,3.82,4.72,7.61,7.64,12.12,11.11a67.42,67.42,0,0,0,12.64,8.09,42.77,42.77,0,0,0,11.62,4,38.89,38.89,0,0,0,10.1.5l-44,101.56a4.39,4.39,0,0,1-2.14.89c-1.1.12-1.39-.32-2.28-.19a4,4,0,0,0-2.84,2.65,5.71,5.71,0,0,0,0,2.84C168.88,195.25,169.12,196.91,169.33,198.31Z"/><polygon class="cls-4" points="95.96 76.83 97.27 73.09 102.13 73.09 99.05 69.54 100.63 64.5 95.96 65.25 91.86 61.33 92.79 67.68 89.24 69.08 93.54 71.22 95.96 76.83"/><polygon class="cls-4" points="102.13 57.59 103.25 62.63 105.49 57.59 111.09 58.9 106.61 53.48 108.47 49 104.18 50.31 99.51 46.02 100.45 52.55 95.68 55.16 102.13 57.59"/><polygon class="cls-4" points="117.63 51.99 119.86 47.32 124.35 48.44 120.99 43.21 122.67 39.29 117.63 40.41 113.7 36.12 113.7 41.72 111.09 46.02 115.94 46.02 117.63 51.99"/><polygon class="cls-4" points="134.99 51.99 136.11 48.44 141.15 49.38 138.07 45.27 139.47 38.92 135.92 40.97 131.44 37.05 131.44 42.65 127.89 46.02 132.56 46.02 134.99 51.99"/><polygon class="cls-4" points="143.77 58.9 147.88 55.91 146.94 50.5 151.05 54.33 154.41 51.99 153.29 57.22 156.09 61.33 149.93 65.25 149 59.46 143.77 58.9"/><polygon class="cls-4" points="157.4 76.83 157.4 70.85 161.13 73.84 164.87 70.85 163.56 76.83 166.55 81.68 162.63 81.68 159.64 86.53 158.33 80.56 153.66 80.19 157.4 76.83"/><polygon class="cls-4" points="159.73 100.16 158.4 93.53 162.38 97.7 166.74 94.67 165.41 100.16 170.34 104.33 165.03 104.33 164.37 110.96 161.15 105.28 155.94 104.71 159.73 100.16"/><polygon class="cls-4" points="159.16 128.39 166.55 128.39 160.1 123.09 161.15 117.59 157.07 120.62 151.96 115.13 151.96 122.9 148.74 126.5 155.94 128.39 157.64 132.94 159.16 128.39"/><polygon class="cls-4" points="143.05 144.5 144.57 140.52 149.68 140.52 144.57 136.16 145.52 129.72 141.92 132.94 138.88 129.72 138.88 134.65 135.19 138.25 140.4 139.38 143.05 144.5"/><polygon class="cls-4" points="126.95 139.57 132.63 139.57 126.95 132.94 129.79 127.64 124.86 129.72 122.21 124.79 122.21 132.18 119.31 135.21 122.78 137.11 124.86 143.17 126.95 139.57"/><polygon class="cls-4" points="107.24 128.01 110.65 124.03 115.2 124.79 111.22 119.11 113.31 113.05 108.76 115.13 105.73 110.96 104.78 116.83 102.32 118.73 105.92 121.57 107.24 128.01"/><polygon class="cls-4" points="98.77 102.97 101.19 98.24 106.23 100.6 102.13 94.19 104.37 88.4 99.89 90.08 96.9 86.53 96.9 92.7 92.98 94.75 97.83 96.06 98.77 102.97"/><path class="cls-5" d="M176.78,205.32l6.06-7a4.5,4.5,0,0,1-2.27-1.39c-1-1.15-.49-2-1.39-3.79-.36-.71-.34-.39-2.4-3-1.29-1.65-1.45-2-2.06-2.26a4.3,4.3,0,0,0-3.25,0,4.76,4.76,0,0,0-2.84,2.65,6.14,6.14,0,0,0,0,2.84c.27,2.14.46,3.72,1.45,4.17.74.33,1.27-.26,2,.13a2.73,2.73,0,0,1,1.13,2.14,7.05,7.05,0,0,1,3.54,5.5Z"/><path class="cls-1" d="M212.27,144.5c.9-2.73,3.18-4.11,4.8-5.05,4.21-2.47,8.42-2.39,11.37-2.34a26.83,26.83,0,0,1,11.12,2.34,29.8,29.8,0,0,1,9.35,7.07c3.88,4,3.54,5.34,7.32,8.59,2.66,2.28,3,1.79,6.82,4.8,3.55,2.8,5.45,4.31,7.08,7.07a18.79,18.79,0,0,1,2.52,8.59c.13,2.85-.44,4.94-1.51,8.84s-1.46,3.8-2.28,6.82a34.5,34.5,0,0,0-1.26,10.87c.16,2.94.95,5.5,2.53,10.61,1.35,4.38,2.74,8,4,11.37,2.38,6.16,2.74,6.42,3.28,8.84.84,3.71,1.64,7.27,0,10.86-1.4,3.07-3.88,4.63-6.57,6.32a27.7,27.7,0,0,1-10.61,3.79,36.34,36.34,0,0,1-11.36,0c-4.27-.51-6.44-.8-8.34-2.53a10.33,10.33,0,0,1-3-6.06c-.57-3.37.56-5.42,2.52-11.12,1.55-4.48.56-2.36,3.54-11.87a124.32,124.32,0,0,0,3.54-12.63s.38-1.83.75-4.36c.67-4.51,1-6.81.26-8.89-.49-1.39-1.42-2.41-3.29-4.44a30.77,30.77,0,0,0-7.83-6.31c-2.74-1.54-3.29-1.27-4.55-2.53a11.07,11.07,0,0,1-2.77-6.32c-1-5.51,1.11-7.56-.51-11.62a12.16,12.16,0,0,0-2.53-3.79c-3.37-3.76-6-3.08-10.61-7.07-2.83-2.44-3.51-4.13-3.79-5A8.15,8.15,0,0,1,212.27,144.5Z"/><path class="cls-5" d="M223.89,187.53l8.59-4.38a16,16,0,0,1-2.77-6.32,15.47,15.47,0,0,1-.15-5.23,10.42,10.42,0,0,0-2.89-10.18,32,32,0,0,0-10.61-7.07,9.62,9.62,0,0,0-1.77,3.79,11.15,11.15,0,0,0,0,4,14.81,14.81,0,0,0,1.52,5,16.69,16.69,0,0,0,4,4.8,27.81,27.81,0,0,0,3.54,2.78Z"/><polygon class="cls-6" points="219.85 193.51 221.12 196.43 235.93 185.09 232.48 183.15 223.9 187.53 219.85 193.51"/><path class="cls-7" d="M182.84,198.31l-6.06,7-2.65,3.6a45.44,45.44,0,0,0,5.81,4.8c2.73,1.9,4.46,2.66,7.71,4.55,2,1.16,4.86,2.91,8.2,5.3l-32.08,20.21a13.05,13.05,0,0,1,2.78,1.77,9.69,9.69,0,0,1,1.92,2,8.79,8.79,0,0,1,1.11,2.28,8.15,8.15,0,0,1,0,4.5l36.88-17.89c0,5.24-.14,9.7-.25,13.13-.25,8.07-.38,12.15-1,14.66a37.27,37.27,0,0,0-1.52,7.57,30.84,30.84,0,0,0,.26,6.83,3.54,3.54,0,0,1,2.52,0,3.59,3.59,0,0,1,1.77,1.51q.09,2.56,0,5.31A81.29,81.29,0,0,1,205,305.68q-1.39,5.55-2.78,11.11a50,50,0,0,0-4.55,28,34.28,34.28,0,0,0,9.6,5.06c5,1.66,9.11,1.64,17.18,1.51a126.73,126.73,0,0,0,17.94-1.51A122,122,0,0,0,257,346.6a20.52,20.52,0,0,1-2-2.78c-3.45-5.66-3.33-11.5-3.29-14.14.31-17.83-.71-13,0-27.54.7-14,1.62-18,.76-21a7.25,7.25,0,0,1,0-4.55,6.55,6.55,0,0,1,1.77-2.52,46.47,46.47,0,0,0-2.78-6.07c-1.66-3-2.64-4.06-3.79-6.31a25.15,25.15,0,0,1-2.49-8.35,9,9,0,0,1-4.58-2,9.59,9.59,0,0,1-3-6.06c-.54-3.42.58-5.49,2.52-11.12,1.55-4.48.56-2.36,3.54-11.87a124.32,124.32,0,0,0,3.54-12.63s.38-1.83.75-4.36c.67-4.51,1-6.81.26-8.89-.44-1.25-1.39-2.31-3.29-4.44a30.37,30.37,0,0,0-7.83-6.31c-.45-.26-.83-.45-1.1-.59l-14.81,11.34-1.27-2.92-7.95,11.81a3.62,3.62,0,0,1,0,2.34,4.11,4.11,0,0,1-3.67,2.52,19.61,19.61,0,0,1-10.36.51A20.23,20.23,0,0,1,190,206.9,24.58,24.58,0,0,1,182.84,198.31Z"/><polygon class="cls-5" points="159.47 255.66 166.29 252.88 168.47 250.1 168.47 247.57 166.55 245.55 164.55 244.19 162.71 245.58 161.15 248.38 159.47 251.6 158.4 254.82 158.4 255.66 159.47 255.66"/><path class="cls-5" d="M201.79,399.91c3.11-7,2.25-6.58,4.55-11.37,3.79-7.9,5.5-7.71,7.95-14A37.06,37.06,0,0,0,217,361.26a33.53,33.53,0,0,0-1.52-9.9,30.57,30.57,0,0,1-8.21-1.47,31.33,31.33,0,0,1-5.43-2.38c.06,1.9.09,4.54,0,7.68a107.58,107.58,0,0,1-1.9,18.19,79,79,0,0,1-3.78,14c-2.16,5.67-3.18,6.2-5.31,12.51-2.62,7.75-3.12,9.47-3.12,9.47-.82,2.87-1.38,5.19-3.32,7.58a14.38,14.38,0,0,1-3.41,3,14.45,14.45,0,0,0,6.63-1.13c2-.9,3.78-2.27,6.25-5.31A57.09,57.09,0,0,0,201.79,399.91Z"/><path class="cls-5" d="M232.67,420a5.87,5.87,0,0,0,3.41,1.49,6.39,6.39,0,0,0,4.17-1.49,19.68,19.68,0,0,0,6.26-7.61,25,25,0,0,0,2.27-11.93c1.38-4.89,3.71-13.52,5.3-22,.56-2.95,1.2-6.78,1.52-8.72.86-5.17,1.29-7.76,1.39-9.28a33.68,33.68,0,0,0-2-13.34,119.49,119.49,0,0,1-12.67,2.73c-1.22.19-2.43.36-3.61.51a24.51,24.51,0,0,1,1.14,2.33,28.42,28.42,0,0,1,1.9,7.39c.64,4.07,1,6.1,1.14,8.71a83.85,83.85,0,0,1-.38,13.46c-.45,5.33-.67,8-1.52,11.37-.77,3.06-1.29,3.87-1.89,7.2s-.37,4.28-1.14,7.2a38.52,38.52,0,0,1-2.27,6.06A61.31,61.31,0,0,1,232.67,420Z"/><path class="cls-7" d="M170.53,423.59l3.22,3.6h12.88a47.74,47.74,0,0,0,7.58-5.67A48.67,48.67,0,0,0,201.6,413h3.79v14.21h2.46V413a19.06,19.06,0,0,1-.38-3.69c0-1.63.21-2,.1-3.22a7.23,7.23,0,0,0-1.42-4.08,6.39,6.39,0,0,0-4.36-2.08,55.24,55.24,0,0,1-8,13.64c-2.71,3.38-4.42,4.6-6.25,5.31A54.93,54.93,0,0,1,181,420c-3.65.54-5.06.67-7,1.53A15.31,15.31,0,0,0,170.53,423.59Z"/><path class="cls-7" d="M224.91,425.68a3.36,3.36,0,0,1,.75-2.53,6.67,6.67,0,0,1,3.92-3.13,6.57,6.57,0,0,1,3.09,0,8.43,8.43,0,0,1,3.41,1.49,12.81,12.81,0,0,0,4.17-1.49,14.89,14.89,0,0,0,6.26-7.61c1.34-3.51.41-4.93,2.27-11.93.19-.73.36-1.33.48-1.72a6.23,6.23,0,0,1,4.19,3.67c1.17,2.62.5,5.26,0,7.2a17.74,17.74,0,0,1-1.51,3.92v11.24h-2.66l-.12-10.73a36.13,36.13,0,0,1-2.15,4.29,22.83,22.83,0,0,1-4.55,5.94,19.23,19.23,0,0,1-4.29,2.9H225.92A2.67,2.67,0,0,1,224.91,425.68Z"/><path class="cls-3" d="M146.84,426.06a13.17,13.17,0,0,0,7.58,0c4.31-1.38,7.91-5.12,7.39-7,0-.17-.06-.11-1.14-2.47a2.33,2.33,0,0,0-.56-.95c-.93-.76-2.63-.08-2.85,0-2.3,1-2.86,4-2.93,4.39-.67-1.34-1.28-2.5-1.8-3.44-1.15-2.06-1.62-2.71-2.47-3a2.46,2.46,0,0,0-1.89,0,2.56,2.56,0,0,0-1.33,2.27,3.26,3.26,0,0,0,.57,1.71c.91,1.62,2,1.92,1.9,2.49s-1.53,1.17-2.47.73c-1.1-.52-.63-2-1.89-3a2.85,2.85,0,0,0-3.22-.38,2.93,2.93,0,0,0-.76,2.46,5.66,5.66,0,0,0,.95,3A8.44,8.44,0,0,0,146.84,426.06Z"/><path class="cls-7" d="M22.17,356c.63-.89,3.47-1.21,6-1.38,1.89-.13,3.61-.18,4.2-.32,2.46-.62,4.55-1.8,8.72-4.17,3.73-2.13,4-2.67,7.57-4.74a77,77,0,0,1,8.53-4.17c5.62-2.39,8.51-3.58,12.51-3.79,2.42-.12,4.72-.24,7.2.95,2.75,1.32,2.82,2.87,6.63,7.39,1.76,2.1,4.21,4.49,9.09,9.28,2.24,2.2,3.55,3.41,4.74,5.69.91,1.74,2.41,4.59,1.33,7-.78,1.73-2.52,2.41-5.69,3.6-2,.76-4.09,1.32-9.85,2.27-4.41.73-6.61,1.1-9.47,1.33-3.59.29-4.52.11-9.29.19-8.36.14-12.54.21-17.62.94a32.48,32.48,0,0,1-9.28.19A12.5,12.5,0,0,1,33,374.9a13.77,13.77,0,0,1-4.17-3.79c-.69-.83-1.32-1.58-1.89-2.28-2.64-3.23-4.08-5.37-4.74-8.33C21.7,358.4,21.4,357.05,22.17,356Z"/><path class="cls-7" d="M21.7,348.56c-1.93-2.27-3.35-3.95-4.27-6.63a23.37,23.37,0,0,1-.95-7.39c-.06-2.77.21-3.91-.19-6.63a16.26,16.26,0,0,0-.94-4,15.26,15.26,0,0,0-3.79-5.5,24.07,24.07,0,0,0-6.82-4.16h0L0,312a18.07,18.07,0,0,1,6.82,1.14,18,18,0,0,1,6.82,4.55,17.7,17.7,0,0,1,4,6.63,22.52,22.52,0,0,1,.76,5.68c.42,6.84-.5,8.08.57,11,.51,1.4,1.67,2.79,4,5.5,1.76,2.07,4.23,4.84,7.42,8l-2.15.13A36.62,36.62,0,0,1,21.7,348.56Z"/><path class="cls-7" d="M39,222.75a65.06,65.06,0,0,1,4,9.66,52.28,52.28,0,0,1,1.71,6.45,45.31,45.31,0,0,1,0,16.8,48.38,48.38,0,0,1-2.09,7.26c-1.54,4.12-2.22,4.18-3.6,8-.57,1.56-1.21,4.22-2.46,9.47-.74,3.11-1.12,4.67-1.33,5.68-2,9.83-.8,19.18,0,25.2.42,3.11.93,5.76,1.14,6.83.63,3.16,1.31,5.85,1.89,7.95.93,2.59,2,5.32,3.22,8.15q1.59,3.63,3.23,6.82l3,4.95L46,347a56.89,56.89,0,0,1-3-5,78.44,78.44,0,0,1-3.22-7.2,84.11,84.11,0,0,1-3.22-8.34c-.79-3.11-.43-3.65-1.33-8-.65-3.13-1.28-4.92-1.7-6.44-2.08-7.38-1.29-14.48,0-26a58.52,58.52,0,0,1,.94-6.06,43.81,43.81,0,0,1,3-9.66c1.87-4.07,2.85-4.22,4-7.58.2-.59.67-2.06,1.14-7.07.55-5.78,1-10.42.19-16.43-.28-2.2-.63-3.83-1.14-6.25C40.78,228.72,39.8,225.22,39,222.75Z"/><path class="cls-7" d="M310.74,369a5.44,5.44,0,0,1-1.52-3.79c0-1.55.56-2.37,2.84-6.06,2.77-4.48,3.18-5.36,4.93-7.72,1.48-2,2.24-3,3-3.46,3.21-1.87,7.28-.44,8.53,0,2.85,1,2.56,1.89,6.44,3.46a33.25,33.25,0,0,0,5.49,1.66,28.15,28.15,0,0,0,5.31.76c3.87.12,5-.85,5.87,0s.2,2.89-.94,7.2c-.94,3.54-1.49,4.55-2.47,5.3-.78.6-1.47.75-3.22,1.14L338.21,369c-10.28,1.55-11.67-.24-21.22,1C315.13,370.2,312.46,370.61,310.74,369Z"/><path class="cls-7" d="M334.61,280h1.9a27.85,27.85,0,0,1-.95,3.79c-.83,2.51-1.52,3.3-2.09,5.31a24,24,0,0,0-.56,5,45.37,45.37,0,0,0,0,7.83,21.15,21.15,0,0,0,1,5.43c.57,1.66.83,1.63,1.76,3.79a51.87,51.87,0,0,1,2.15,6.69c.26.91.77,2.76,1.39,5.31.67,2.76,1.12,4.6,1.39,6.19.35,2.06.47,4.21,0,9.85-.29,3.54-.79,8.16-1.69,13.59l-1.7-.49a64.27,64.27,0,0,0,1.5-22.83,43.51,43.51,0,0,0-1-6.06c-.38-1.54-.76-2.71-1.52-5.05-1.14-3.48-2.22-6.35-2.4-6.82-1.06-2.8-1.18-2.84-1.52-4a26.94,26.94,0,0,1-.88-5.56,52,52,0,0,1,0-7.71,28.82,28.82,0,0,1,.63-5.81c.47-1.7,1-2.53,1.77-5.18C334.19,281.84,334.45,280.71,334.61,280Z"/><path class="cls-1" d="M325.83,328.41a5.42,5.42,0,0,1,4-4.54,5.08,5.08,0,0,1,4.42,1.13c1.38,1.27,1.11,2.79,2.91,4.42a7.44,7.44,0,0,0,1.63,1.11l.28,4.46a17.44,17.44,0,0,1-3.55,0,28.69,28.69,0,0,1-5.56-1.52c-2.49-.83-2.9-1.07-3.28-1.52A4.69,4.69,0,0,1,325.83,328.41Z"/><path class="cls-1" d="M340.27,342.8a28.31,28.31,0,0,1,1.48-4.53c.4-.95.74-1.62,1.13-2.4,1.05-2.06,1.57-3.09,2.15-3.54a4.89,4.89,0,0,1,4.42-.76,5,5,0,0,1,2.55,2,5.4,5.4,0,0,1,1,4.42,5.33,5.33,0,0,1-2.53,3c-1.17.71-2.07.75-5.3,1.13C344.09,342.31,342.4,342.51,340.27,342.8Z"/><path class="cls-1" d="M337.42,316.36a18,18,0,0,0,6.6.94,18.27,18.27,0,0,0,4.93-.94,9.35,9.35,0,0,0,3.05-3.61,5.21,5.21,0,0,0,.29-1.25,4.55,4.55,0,0,0-.29-2,4.65,4.65,0,0,0-2.29-2.4,6.46,6.46,0,0,0-5,0C339.56,308.77,337.66,315.48,337.42,316.36Z"/><path class="cls-1" d="M333.79,311.49c0-.2.09-.61-.78-2a15.48,15.48,0,0,0-1.87-2.43,21.78,21.78,0,0,0-1.9-1.77c-1.74-1.51-2.61-2.26-3.41-2.53a4.85,4.85,0,0,0-3.28,0,4.45,4.45,0,0,0-2.53,2.4,4.75,4.75,0,0,0,0,3.16,6.27,6.27,0,0,0,2,3.16,6.62,6.62,0,0,0,2.65,1.26c1.49.39,1.63,0,4.3.13,1.79.1,2.47.33,3.48-.13C332.79,312.6,333.61,312.23,333.79,311.49Z"/><path class="cls-1" d="M332.91,294.06c.72,1.22,3.59.73,4.2.63a10.75,10.75,0,0,0,3.16-1.14c2-1,3.35-1.65,4.29-3.16a5.28,5.28,0,0,0,.85-3.91,4.88,4.88,0,0,0-1.64-2.66,5,5,0,0,0-3.5-1,6.66,6.66,0,0,0-3.16,1.39,7.81,7.81,0,0,0-2.79,2.62,8.31,8.31,0,0,0-.85,2.25c-.06.25-.13.56-.39,2.46C332.78,293.75,332.8,293.89,332.91,294.06Z"/><path class="cls-1" d="M331.75,289.67a19.72,19.72,0,0,0,0-4.71c-.25-2.06-.42-3.52-1.5-5a6.73,6.73,0,0,0-3.34-2.46,4.5,4.5,0,0,0-3.6,0c-1.87,1-2,3.42-2,3.66-.09,2,1.21,3.5,2.15,4.55a11.47,11.47,0,0,0,4.68,3A14.91,14.91,0,0,0,331.75,289.67Z"/><path class="cls-1" d="M334.61,280h1.9l.92-3.05c.43-.77,1-1.87,1.73-3.2,1.54-3,1.69-3.57,1.76-4.17a6.58,6.58,0,0,0-.94-4.17,5.09,5.09,0,0,0-2.2-2,5,5,0,0,0-4,0,5.76,5.76,0,0,0-2.55,2.78,5.33,5.33,0,0,0-1,3.28c.07.58.26.95,1.5,2.78,1.92,2.85,2.22,3.07,2.54,3.92A7.21,7.21,0,0,1,334.61,280Z"/></g></g></svg>